<mxfile host="app.diagrams.net" modified="2023-08-16T04:22:21.347Z" agent="Mozilla/5.0 (Windows NT 10.0; Win64; x64) AppleWebKit/537.36 (KHTML, like Gecko) Chrome/115.0.0.0 Safari/537.36 Edg/115.0.1901.203" etag="epcOfqf8QXHERNiIVK5q" version="21.6.8" type="github">
  <diagram name="Page-1" id="4ZnNFXyoEZe7LMFONqr0">
    <mxGraphModel dx="1035" dy="569" grid="1" gridSize="10" guides="1" tooltips="1" connect="1" arrows="1" fold="1" page="1" pageScale="1" pageWidth="850" pageHeight="1100" math="0" shadow="0">
      <root>
        <mxCell id="0" />
        <mxCell id="1" parent="0" />
        <mxCell id="6k_cG2A3B_EXTdvcoZ3U-2" value="auto workshop" style="whiteSpace=wrap;html=1;align=center;" parent="1" vertex="1">
          <mxGeometry x="320" y="200" width="100" height="40" as="geometry" />
        </mxCell>
        <mxCell id="6k_cG2A3B_EXTdvcoZ3U-3" value="" style="line;strokeWidth=1;rotatable=0;dashed=0;labelPosition=right;align=left;verticalAlign=middle;spacingTop=0;spacingLeft=6;points=[];portConstraint=eastwest;" parent="1" vertex="1">
          <mxGeometry x="360" y="300" width="80" as="geometry" />
        </mxCell>
        <mxCell id="6k_cG2A3B_EXTdvcoZ3U-7" style="edgeStyle=orthogonalEdgeStyle;rounded=0;orthogonalLoop=1;jettySize=auto;html=1;entryX=1;entryY=0.5;entryDx=0;entryDy=0;" parent="1" source="6k_cG2A3B_EXTdvcoZ3U-6" target="6k_cG2A3B_EXTdvcoZ3U-2" edge="1">
          <mxGeometry relative="1" as="geometry" />
        </mxCell>
        <mxCell id="6k_cG2A3B_EXTdvcoZ3U-6" value="branches address" style="ellipse;whiteSpace=wrap;html=1;align=center;" parent="1" vertex="1">
          <mxGeometry x="510" y="160" width="100" height="40" as="geometry" />
        </mxCell>
        <mxCell id="6k_cG2A3B_EXTdvcoZ3U-9" style="edgeStyle=orthogonalEdgeStyle;rounded=0;orthogonalLoop=1;jettySize=auto;html=1;" parent="1" source="6k_cG2A3B_EXTdvcoZ3U-8" target="6k_cG2A3B_EXTdvcoZ3U-2" edge="1">
          <mxGeometry relative="1" as="geometry" />
        </mxCell>
        <mxCell id="6k_cG2A3B_EXTdvcoZ3U-8" value="id" style="ellipse;whiteSpace=wrap;html=1;align=center;fontStyle=4;" parent="1" vertex="1">
          <mxGeometry x="320" y="100" width="100" height="40" as="geometry" />
        </mxCell>
        <mxCell id="6k_cG2A3B_EXTdvcoZ3U-12" style="edgeStyle=orthogonalEdgeStyle;rounded=0;orthogonalLoop=1;jettySize=auto;html=1;entryX=0.75;entryY=0;entryDx=0;entryDy=0;exitX=0;exitY=0.5;exitDx=0;exitDy=0;" parent="1" source="6k_cG2A3B_EXTdvcoZ3U-10" target="6k_cG2A3B_EXTdvcoZ3U-2" edge="1">
          <mxGeometry relative="1" as="geometry">
            <Array as="points">
              <mxPoint x="510" y="160" />
              <mxPoint x="395" y="160" />
            </Array>
          </mxGeometry>
        </mxCell>
        <mxCell id="6k_cG2A3B_EXTdvcoZ3U-10" value="rating" style="ellipse;whiteSpace=wrap;html=1;align=center;" parent="1" vertex="1">
          <mxGeometry x="460" y="100" width="100" height="40" as="geometry" />
        </mxCell>
        <mxCell id="6k_cG2A3B_EXTdvcoZ3U-14" style="edgeStyle=orthogonalEdgeStyle;rounded=0;orthogonalLoop=1;jettySize=auto;html=1;entryX=0;entryY=0.75;entryDx=0;entryDy=0;" parent="1" source="6k_cG2A3B_EXTdvcoZ3U-13" target="6k_cG2A3B_EXTdvcoZ3U-2" edge="1">
          <mxGeometry relative="1" as="geometry" />
        </mxCell>
        <mxCell id="6k_cG2A3B_EXTdvcoZ3U-13" value="schedule" style="ellipse;whiteSpace=wrap;html=1;align=center;" parent="1" vertex="1">
          <mxGeometry x="150" y="240" width="100" height="40" as="geometry" />
        </mxCell>
        <mxCell id="6k_cG2A3B_EXTdvcoZ3U-16" style="edgeStyle=orthogonalEdgeStyle;rounded=0;orthogonalLoop=1;jettySize=auto;html=1;entryX=0;entryY=0.25;entryDx=0;entryDy=0;" parent="1" source="6k_cG2A3B_EXTdvcoZ3U-15" target="6k_cG2A3B_EXTdvcoZ3U-2" edge="1">
          <mxGeometry relative="1" as="geometry" />
        </mxCell>
        <mxCell id="6k_cG2A3B_EXTdvcoZ3U-15" value="contact information" style="ellipse;whiteSpace=wrap;html=1;align=center;" parent="1" vertex="1">
          <mxGeometry x="150" y="180" width="100" height="40" as="geometry" />
        </mxCell>
        <mxCell id="6k_cG2A3B_EXTdvcoZ3U-18" style="edgeStyle=orthogonalEdgeStyle;rounded=0;orthogonalLoop=1;jettySize=auto;html=1;entryX=0.25;entryY=0;entryDx=0;entryDy=0;" parent="1" source="6k_cG2A3B_EXTdvcoZ3U-17" target="6k_cG2A3B_EXTdvcoZ3U-2" edge="1">
          <mxGeometry relative="1" as="geometry" />
        </mxCell>
        <mxCell id="6k_cG2A3B_EXTdvcoZ3U-17" value="description" style="ellipse;whiteSpace=wrap;html=1;align=center;" parent="1" vertex="1">
          <mxGeometry x="150" y="130" width="100" height="40" as="geometry" />
        </mxCell>
        <mxCell id="2XloK-BeQbmO1Se2qZyU-5" style="edgeStyle=orthogonalEdgeStyle;rounded=0;orthogonalLoop=1;jettySize=auto;html=1;entryX=0.25;entryY=1;entryDx=0;entryDy=0;" edge="1" parent="1" source="2XloK-BeQbmO1Se2qZyU-1" target="2XloK-BeQbmO1Se2qZyU-8">
          <mxGeometry relative="1" as="geometry">
            <mxPoint x="315" y="500" as="targetPoint" />
          </mxGeometry>
        </mxCell>
        <mxCell id="2XloK-BeQbmO1Se2qZyU-1" value="specialization name" style="ellipse;whiteSpace=wrap;html=1;align=center;" vertex="1" parent="1">
          <mxGeometry x="235" y="560" width="100" height="40" as="geometry" />
        </mxCell>
        <mxCell id="2XloK-BeQbmO1Se2qZyU-4" style="edgeStyle=orthogonalEdgeStyle;rounded=0;orthogonalLoop=1;jettySize=auto;html=1;entryX=0.75;entryY=1;entryDx=0;entryDy=0;" edge="1" parent="1" source="2XloK-BeQbmO1Se2qZyU-3" target="2XloK-BeQbmO1Se2qZyU-8">
          <mxGeometry relative="1" as="geometry">
            <mxPoint x="415" y="500" as="targetPoint" />
          </mxGeometry>
        </mxCell>
        <mxCell id="2XloK-BeQbmO1Se2qZyU-3" value="id" style="ellipse;whiteSpace=wrap;html=1;align=center;fontStyle=4;" vertex="1" parent="1">
          <mxGeometry x="385" y="560" width="100" height="40" as="geometry" />
        </mxCell>
        <mxCell id="2XloK-BeQbmO1Se2qZyU-7" style="edgeStyle=orthogonalEdgeStyle;rounded=0;orthogonalLoop=1;jettySize=auto;html=1;entryX=0.83;entryY=1.075;entryDx=0;entryDy=0;entryPerimeter=0;" edge="1" parent="1" source="2XloK-BeQbmO1Se2qZyU-6" target="6k_cG2A3B_EXTdvcoZ3U-2">
          <mxGeometry relative="1" as="geometry" />
        </mxCell>
        <mxCell id="2XloK-BeQbmO1Se2qZyU-6" value="tow truck service" style="ellipse;whiteSpace=wrap;html=1;align=center;" vertex="1" parent="1">
          <mxGeometry x="480" y="280" width="100" height="40" as="geometry" />
        </mxCell>
        <mxCell id="2XloK-BeQbmO1Se2qZyU-8" value="specialization" style="whiteSpace=wrap;html=1;align=center;" vertex="1" parent="1">
          <mxGeometry x="310" y="480" width="100" height="40" as="geometry" />
        </mxCell>
        <mxCell id="2XloK-BeQbmO1Se2qZyU-16" style="edgeStyle=orthogonalEdgeStyle;rounded=0;orthogonalLoop=1;jettySize=auto;html=1;entryX=0;entryY=1;entryDx=0;entryDy=0;" edge="1" parent="1" source="2XloK-BeQbmO1Se2qZyU-9" target="6k_cG2A3B_EXTdvcoZ3U-2">
          <mxGeometry relative="1" as="geometry" />
        </mxCell>
        <mxCell id="2XloK-BeQbmO1Se2qZyU-9" value="specialization id" style="ellipse;whiteSpace=wrap;html=1;align=center;" vertex="1" parent="1">
          <mxGeometry x="140" y="290" width="100" height="40" as="geometry" />
        </mxCell>
        <mxCell id="2XloK-BeQbmO1Se2qZyU-12" style="edgeStyle=orthogonalEdgeStyle;rounded=0;orthogonalLoop=1;jettySize=auto;html=1;entryX=1;entryY=1;entryDx=0;entryDy=0;" edge="1" parent="1" source="2XloK-BeQbmO1Se2qZyU-11" target="6k_cG2A3B_EXTdvcoZ3U-2">
          <mxGeometry relative="1" as="geometry" />
        </mxCell>
        <mxCell id="2XloK-BeQbmO1Se2qZyU-11" value="status" style="ellipse;whiteSpace=wrap;html=1;align=center;" vertex="1" parent="1">
          <mxGeometry x="510" y="220" width="100" height="40" as="geometry" />
        </mxCell>
        <mxCell id="2XloK-BeQbmO1Se2qZyU-14" style="edgeStyle=orthogonalEdgeStyle;rounded=0;orthogonalLoop=1;jettySize=auto;html=1;entryX=0;entryY=0.5;entryDx=0;entryDy=0;" edge="1" parent="1" source="2XloK-BeQbmO1Se2qZyU-13" target="2XloK-BeQbmO1Se2qZyU-8">
          <mxGeometry relative="1" as="geometry" />
        </mxCell>
        <mxCell id="2XloK-BeQbmO1Se2qZyU-13" value="status" style="ellipse;whiteSpace=wrap;html=1;align=center;" vertex="1" parent="1">
          <mxGeometry x="150" y="480" width="100" height="40" as="geometry" />
        </mxCell>
        <mxCell id="2XloK-BeQbmO1Se2qZyU-30" style="edgeStyle=orthogonalEdgeStyle;rounded=0;orthogonalLoop=1;jettySize=auto;html=1;entryX=0.4;entryY=1;entryDx=0;entryDy=0;entryPerimeter=0;" edge="1" parent="1" source="2XloK-BeQbmO1Se2qZyU-15" target="6k_cG2A3B_EXTdvcoZ3U-2">
          <mxGeometry relative="1" as="geometry" />
        </mxCell>
        <mxCell id="2XloK-BeQbmO1Se2qZyU-31" style="edgeStyle=orthogonalEdgeStyle;rounded=0;orthogonalLoop=1;jettySize=auto;html=1;" edge="1" parent="1" source="2XloK-BeQbmO1Se2qZyU-15" target="2XloK-BeQbmO1Se2qZyU-8">
          <mxGeometry relative="1" as="geometry" />
        </mxCell>
        <mxCell id="2XloK-BeQbmO1Se2qZyU-15" value="have" style="shape=rhombus;perimeter=rhombusPerimeter;whiteSpace=wrap;html=1;align=center;" vertex="1" parent="1">
          <mxGeometry x="300" y="360" width="120" height="60" as="geometry" />
        </mxCell>
        <mxCell id="2XloK-BeQbmO1Se2qZyU-21" value="N:N" style="text;strokeColor=none;fillColor=none;spacingLeft=4;spacingRight=4;overflow=hidden;rotatable=0;points=[[0,0.5],[1,0.5]];portConstraint=eastwest;fontSize=12;whiteSpace=wrap;html=1;" vertex="1" parent="1">
          <mxGeometry x="420" y="375" width="30" height="30" as="geometry" />
        </mxCell>
      </root>
    </mxGraphModel>
  </diagram>
</mxfile>
